<svg clip-rule="evenodd" fill-rule="evenodd" height="112.5mm" image-rendering="optimizeQuality" shape-rendering="geometricPrecision" text-rendering="geometricPrecision" viewBox="0 0 11250 11250" width="112.5mm" xmlns="http://www.w3.org/2000/svg"><path d="m3124.27 1005.33h5000c550 0 1000 450.01 1000 1000.01v7999.98c0 550.01-450 1000.01-1000 1000.01h-5000c-550 0-1000-450-1000-1000.01v-7999.98c0-550 450-1000.01 1000-1000.01z" fill="#f0f06e" stroke="#2b2a29" stroke-miterlimit="22.9256" stroke-width="500"/><path d="m5124.27 1755.33h1000c412.5 0 750-337.5 750-750 0-412.5-337.5-750-750-750h-1000c-412.5 0-750 337.5-750 750 0 412.5 337.5 750 750 750z" fill="#48e868" stroke="#2b2a29" stroke-miterlimit="22.9256" stroke-width="500"/><path d="m3124.27 3755.33h5000c137.5 0 250 112.5 250 250 0 137.5-112.5 250-250 250h-5000c-137.5 0-250-112.5-250-250 0-137.5 112.5-250 250-250z" fill="#069e25"/><path d="m3124.27 5755.33h5000c137.5 0 250 112.5 250 250 0 137.5-112.5 250-250 250h-5000c-137.5 0-250-112.5-250-250 0-137.5 112.5-250 250-250z" fill="#1138ad"/><path d="m3124.27 7755.33h5000c137.5 0 250 112.5 250 250 0 137.5-112.5 250-250 250h-5000c-137.5 0-250-112.5-250-250 0-137.5 112.5-250 250-250z" fill="#d1711e"/></svg>