<svg xmlns="http://www.w3.org/2000/svg" xml:space="preserve" width="75mm" height="112.5mm" style="shape-rendering:geometricPrecision;text-rendering:geometricPrecision;image-rendering:optimizeQuality;fill-rule:evenodd;clip-rule:evenodd" viewBox="0 0 7500 11250"><defs><style>.str0{stroke:#2b2a29;stroke-width:500;stroke-miterlimit:22.9256}</style></defs><g id="Слой_x0020_1"><g id="_2111831790560"><path d="M1249.27 1005.33h5000c550 0 1000 450.01 1000 1000.01v7999.98c0 550.01-450 1000.01-1000 1000.01h-5000c-550 0-1000-450-1000-1000.01V2005.34c0-550 450-1000.01 1000-1000.01z" class="str0" style="fill:#f0f06e"/><path d="M3249.27 1755.33h1000c412.5 0 750-337.5 750-750s-337.5-750-750-750h-1000c-412.5 0-750 337.5-750 750s337.5 750 750 750z" class="str0" style="fill:#48e868"/><path d="M1249.27 3755.33h5000c137.5 0 250 112.5 250 250s-112.5 250-250 250h-5000c-137.5 0-250-112.5-250-250s112.5-250 250-250" style="fill:#069e25"/><path d="M1249.27 5755.33h5000c137.5 0 250 112.5 250 250s-112.5 250-250 250h-5000c-137.5 0-250-112.5-250-250s112.5-250 250-250" style="fill:#1138ad"/><path d="M1249.27 7755.33h5000c137.5 0 250 112.5 250 250s-112.5 250-250 250h-5000c-137.5 0-250-112.5-250-250s112.5-250 250-250" style="fill:#d1711e"/></g></g></svg>